<svg xmlns="http://www.w3.org/2000/svg" xmlns:xlink="http://www.w3.org/1999/xlink" version="1.1" id="body_1" viewBox="180.1 102.59 429.57 537.32">

<defs>
    <clipPath id="1">

    <path id="" clip-rule="evenodd" transform="matrix(1 0 0 1 0 0)" d="M0 842L0 0L0 0L595 0L595 0L595 842L595 842L0 842z"/>    </clipPath>
    <clipPath id="2">

    <path id="" clip-rule="evenodd" transform="matrix(1 0 0 1 0 0)" d="M90 0L595 0L595 0L595 842L595 842L90 842z"/>    </clipPath>
    <clipPath id="3">

    <path id="" clip-rule="evenodd" transform="matrix(1 0 0 1 0 0)" d="M94.67971 76.94379L497.67972 76.94379L497.67972 76.94379L497.67972 479.9438L497.67972 479.9438L94.67971 479.9438z"/>    </clipPath>
    <clipPath id="4">

    <path id="" clip-rule="evenodd" transform="matrix(1 0 0 1 0 0)" d="M94.67971 76.94379L497.67972 76.94379L497.67972 76.94379L497.67972 479.9438L497.67972 479.9438L94.67971 479.9438z"/>    </clipPath>
</defs>

<g transform="matrix(1.3333 0 0 1.3333 0 0)">
	<g clip-path="url(#1)">
		<g clip-path="url(#2)">
			<g clip-path="url(#3)">
				<g clip-path="url(#4)">
    <path id="" transform="matrix(1 0 0 -1 0 842)" d="M285.2763 428.32733C 273.09677 412.56552 258.63354 402.31143 250.19293 397.162C 248.82721 397.65454 247.46149 398.1695 246.11816 398.72922L246.11816 398.72922L245.02112 399.177C 219.99033 409.52066 198.9 426.98398 183.98898 449.7087C 168.76456 472.94836 161.21948 499.97177 162.20459 527.84595C 162.89865 547.83923 167.86899 566.91455 177.02605 584.57935C 182.33221 585.766 187.75034 586.5048 193.14604 586.7735L193.14604 586.7735L194.55655 586.81824C 197.288 586.86304 199.99704 586.86304 202.57176 586.81824C 206.37787 586.63916 210.18399 586.23615 213.94533 585.63165C 215.17671 560.2203 221.42322 532.8163 232.5057 504.15848C 243.20761 476.55298 260.962 451.07443 285.2987 428.34973zM328.50928 518.9575C 319.8448 551.82446 302.874 576.6761 278.0895 592.7961C 267.23087 599.871 254.82742 605.2443 241.23737 608.737C 241.4165 610.9983 241.68515 613.2372 241.95383 615.4536C 242.2001 617.3567 242.44638 619.0807 242.73743 620.715C 244.97632 632.2901 248.31226 643.73083 252.63333 654.72375C 254.2901 658.93286 256.1036 663.0972 258.02905 667.1496L258.02905 667.1496L258.09622 667.28394C 261.07394 673.3065 264.40988 679.35156 268.3503 685.8443L268.3503 685.8443L269.89517 688.39667L269.89517 688.39667L269.85037 688.41907C 278.98505 702.7031 289.9556 715.7335 302.471 727.219L302.471 727.219L307.30698 721.4874C 318.591 708.1213 329.20334 695.49396 338.85294 683.9189C 360.5254 657.903 388.6682 623.75995 399.50446 608.6922C 420.953 578.9598 431.29666 548.60046 430.2444 518.4426C 429.41602 495.02383 422.49783 472.18713 410.18396 452.3954C 398.51935 433.65588 382.28738 417.98364 363.16727 406.92352C 352.4878 412.25208 336.99466 421.00616 320.53882 433.76782C 333.81543 460.2091 336.5245 488.84448 328.57642 518.9352zM305.89648 410.97595C 313.97888 404.7966 322.53143 399.02023 331.3079 393.71408C 318.3671 390.19904 305.02335 388.6542 291.52283 389.12436C 289.4317 389.196 287.34058 389.3147 285.25394 389.4826C 292.95572 396.08734 299.85147 403.2965 305.87408 410.95355zM302.4262 512.08417C 307.93387 491.1953 306.85922 471.1125 299.2246 452.3282C 280.17166 471.13486 266.201 491.8222 257.67084 513.87524C 248.55856 537.45074 243.05087 559.88446 241.32693 580.6166C 249.38693 577.9747 256.79767 574.482 263.40237 570.1833C 282.41055 557.80225 295.55283 538.2568 302.4486 512.06177zM421.356 624.5211C 412.33328 637.0813 391.51163 662.8957 359.54028 701.24786C 345.68155 717.8828 333.77066 732.0102 327.90475 738.95074C 325.18228 742.17926 322.4486 745.4077 319.71042 748.62274L319.71042 748.62274L316.24014 752.7423L316.24014 752.7423L314.3371 754.9812L314.3371 754.9812L313.97888 755.51855L313.97888 755.51855L313.82217 755.6081L313.82217 755.6081L305.73978 765.0562L305.73978 765.0562L295.50806 756.8619C 269.4026 735.9283 248.02121 708.99445 233.69232 678.94855C 224.91586 661.0822 219.18433 643.5965 216.1842 625.6182C 215.4006 621.5658 214.70654 617.4015 214.14682 613.2372C 210.63177 613.5282 207.07193 613.70734 203.53448 613.7969C 203.24344 613.8193 202.95238 613.8417 202.54938 613.8417C 189.62651 614.29614 176.7126 612.7491 164.26437 609.25195L164.26437 609.25195L158.93582 607.7519L158.93582 607.7519L156.20438 602.93823C 143.35315 580.39264 136.09915 554.7574 135.18121 528.78625C 133.9946 495.0462 143.19644 462.40323 161.75682 434.32755C 179.9366 406.90115 205.57188 385.94513 235.97598 373.69843L235.97598 373.69843L239.93881 372.1088L239.93881 372.1088L241.12543 371.68344L241.12543 371.68344L241.17023 371.7058C 257.03275 365.95856 273.69904 362.7413 290.5601 362.16812C 292.46988 362.09427 294.3886 362.0562 296.31403 362.0562C 317.69543 362.0562 338.5171 366.24292 358.2865 374.50443L358.2865 374.50443L358.42084 374.43726L358.42084 374.43726L363.68222 376.87766C 390.33844 389.20944 413.13034 408.5669 429.6175 432.87225C 446.5659 457.90305 456.10355 487.1653 457.17822 517.52466C 458.432 553.817 446.38678 589.796 421.356 624.4988" stroke="none" fill="#FFCA28" fill-rule="nonzero"/>
				</g>
			</g>
		</g>
	</g>
</g>
</svg>